<svg xmlns="http://www.w3.org/2000/svg" xmlns:xlink="http://www.w3.org/1999/xlink" xmlns:lucid="lucid" width="1386" height="740"><g transform="translate(-216.40740740740742 -160)" lucid:page-tab-id="0_0"><path d="M0 0h1870.87v1322.83H0z" fill="#fff"/><path d="M1080 560c0 55.23-49.25 100-110 100s-110-44.77-110-100 49.25-100 110-100 110 44.77 110 100z" stroke="#5e5e5e" stroke-width="5" fill="#ff8f80"/><use xlink:href="#a" transform="matrix(1,0,0,1,865,465) translate(12.469135802469154 100.90277777777777)"/><path d="M509.18 305.3c1.56-2.93 5.5-5.3 8.82-5.3h84c3.3 0 7.26 2.37 8.82 5.3l26.36 49.4c1.56 2.93 1.56 7.67 0 10.6l-26.36 49.4c-1.56 2.93-5.5 5.3-8.82 5.3h-84c-3.3 0-7.26-2.37-8.82-5.3l-26.36-49.4c-1.56-2.93-1.56-7.67 0-10.6z" stroke="#5e5e5e" stroke-width="5" fill="#ffdf71"/><use xlink:href="#b" transform="matrix(1,0,0,1,485,305) translate(38.02969135802469 59.02777777777778)"/><path d="M389.18 606.7c1.56-2.9 5.5-5.28 8.82-5.28h84c3.3 0 7.26 2.37 8.82 5.3l26.36 49.4c1.56 2.93 1.56 7.67 0 10.6l-26.36 49.4c-1.56 2.93-5.5 5.3-8.82 5.3h-84c-3.3 0-7.26-2.37-8.82-5.3l-26.36-49.4c-1.56-2.93-1.56-7.67 0-10.6z" stroke="#5e5e5e" stroke-width="5" fill="#a3d977"/><use xlink:href="#c" transform="matrix(1,0,0,1,365,606.4173228346456) translate(29.63462962962963 59.02777777777778)"/><path d="M974 300c3.3 0 6 2.7 6 6v112c0 3.3 2.7 6 6 6h8c3.3 0 4 1.8 1.54 4l-31.08 28c-2.46 2.2-6.46 2.2-8.92 0l-31.08-28c-2.46-2.2-1.77-4 1.54-4h8c3.3 0 6-2.7 6-6V306c0-3.3 2.7-6 6-6z" stroke="#5e5e5e" stroke-width="5" fill="#b2d6ef"/><path d="M860 186c0-3.3 2.7-6 6-6h148c3.3 0 6 2.7 6 6v114c-26.72-20.04-43.36-20.04-53.44-20.04-16 0-37.28 20.04-53.28 20.04-9.92 0-26.72 0-53.28-20.04z" stroke="#5e5e5e" stroke-width="5" fill="#83bbe5"/><use xlink:href="#d" transform="matrix(1,0,0,1,865,185) translate(27.561728395061735 48.71527777777778)"/><path d="M684.94 723.22c2.8-1.78 7.33-1.78 10.12 0l99.88 63.56c2.8 1.78 2.8 4.66 0 6.44l-99.88 63.56c-2.8 1.78-7.33 1.78-10.12 0l-99.88-63.56c-2.8-1.78-2.8-4.66 0-6.44z" stroke="#5e5e5e" stroke-width="5" fill="#c7e8ac"/><use xlink:href="#e" transform="matrix(1,0,0,1,585,725) translate(26.393888888888906 70.59027777777777)"/><path d="M1200.04 784.5c2.2-2.48 6.65-4.5 9.96-4.5h120c3.3 0 7.77 2.02 9.96 4.5l36.08 41c2.2 2.48 2.2 6.52 0 9l-36.08 41c-2.2 2.48-6.65 4.5-9.96 4.5h-120c-3.3 0-7.77-2.02-9.96-4.5l-36.08-41c-2.2-2.48-2.2-6.52 0-9z" stroke="#5e5e5e" stroke-width="5" fill="#5abaa7"/><use xlink:href="#f" transform="matrix(1,0,0,1,1165,785) translate(72.96796296296297 37.46527777777778)"/><use xlink:href="#g" transform="matrix(1,0,0,1,1165,785) translate(35.22104938271606 64.13194444444446)"/><path d="M895.55 358.58l3.1 3.1 1.08 4v113.66h-5v-113l-.56-2.07-1.2-1.2-2.08-.57h-83.65v-5h84.3zm-229.9 3.92v-5h95.27v5z" fill="#5e5e5e"/><path d="M899.73 479.98l-2.8 2.07-2.2 1.8v-4.58h5zM663.16 364.64L648.9 360l14.26-4.64z" fill="#5e5e5e"/><path d="M665.66 368.08L640.8 360l24.86-8.08zm-8.68-8.08l3.68 1.2v-2.4z" fill="#5e5e5e"/><use xlink:href="#h" transform="matrix(1,0,0,1,760.9247625958104,349.3333333333333) translate(0.004999999999999005 14.222222222222223)"/><path d="M562.5 503.33l.56 2.07 1.2 1.2 2.07.57h75.7v5h-76.36l-4-1.08-3.1-3.1-1.07-4v-79h5zm284.64 3.84v5H702.78v-5z" fill="#5e5e5e"/><path d="M562.5 425.06h-5v-2.56h5zM863.9 509.67l-14.26 4.63v-9.27z" fill="#5e5e5e"/><path d="M872 509.67l-24.86 8.07V501.6zm-19.86 1.2l3.67-1.2-3.66-1.2z" fill="#5e5e5e"/><use xlink:href="#i" transform="matrix(1,0,0,1,642.0432586706099,498.9992242414832) translate(0.004999999999999005 14.222222222222223)"/><path d="M636.13 562.5h-189.8l-2.06.56-1.2 1.2-.57 2.07v7.73h-5v-8.4l1.08-3.98 3.1-3.1 4-1.08h190.45zm218.87 0H696.87v-5H855z" fill="#5e5e5e"/><path d="M857.5 560l.03 2.42-2.6.08v-5h2.63zM440 590.83l-4.64-14.27h9.28z" fill="#5e5e5e"/><path d="M440 598.92l-8.08-24.86h16.16zm-1.2-19.86l1.2 3.68 1.2-3.68z" fill="#5e5e5e"/><use xlink:href="#i" transform="matrix(1,0,0,1,636.1331869756806,549.3333333333334) translate(0.004999999999999005 14.222222222222223)"/><path d="M555.8 787.5v5h-97.72v-5zm-113.3-8.17h-5v-52.9h5z" fill="#5e5e5e"/><path d="M442.5 726.48h-5v-2.56h5zM572.56 790l-14.27 4.64v-9.28z" fill="#5e5e5e"/><path d="M580.65 790l-24.86 8.08v-16.16zm-19.86 1.2l3.67-1.2-3.68-1.2z" fill="#5e5e5e"/><use xlink:href="#j" transform="matrix(1,0,0,1,422.6277439886598,779.3333333333334) translate(0.004999999999999005 14.222222222222223)"/><path d="M930.7 792.5H801.85v-5H930.7zm41.8-8.17l-1.08 4-3.1 3.1-2.17.58v-5.48l.8-.8.55-2.05v-96.3h5z" fill="#5e5e5e"/><path d="M801.92 792.5h-3.12l.68-.95-.33-3.94-.1-.1h2.87zM974.64 684.86h-9.28L970 670.6z" fill="#5e5e5e"/><path d="M978.08 687.36h-16.16L970 662.5zm-9.27-5h2.4l-1.2-3.68z" fill="#5e5e5e"/><use xlink:href="#j" transform="matrix(1,0,0,1,930.6969629978753,779.3333333333334) translate(0.004999999999999005 14.222222222222223)"/><path d="M1135.02 827.5v5h-76.84l-.1-.03h12.16v-4.97zm-80-16.36h-5v-179h5z" fill="#5e5e5e"/><path d="M1055 632.2h-5v-.16l.64-.57 3.5-3.42.87-.94zM1151.8 830l-14.28 4.64v-9.28z" fill="#5e5e5e"/><path d="M1159.88 830l-24.86 8.08v-16.16zm-19.86 1.2l3.68-1.2-3.68-1.2z" fill="#5e5e5e"/><use xlink:href="#j" transform="matrix(1,0,0,1,1034.785105837886,811.137729833317) translate(0.004999999999999005 14.222222222222223)"/><path d="M1272.5 775h-5V641.06h5zm-4.18-216.42l3.1 3.1 1.08 4v54.05h-5v-53.4l-.56-2.06-1.2-1.2-2.07-.57h-156.3v-5h156.96z" fill="#5e5e5e"/><path d="M1272.5 777.5h-5v-2.56h5zM1104.86 564.64L1090.6 560l14.26-4.64z" fill="#5e5e5e"/><path d="M1107.36 568.08L1082.5 560l24.86-8.08zm-8.68-8.08l3.68 1.2v-2.4z" fill="#5e5e5e"/><use xlink:href="#k" transform="matrix(1,0,0,1,1224.6172839506173,619.7264830201071) translate(0.005000000000002558 14.222222222222223)"/><path d="M340 346c0-3.3 2.7-6 6-6h68c3.3 0 6 2.7 6 6v148c0 3.3-2.7 6-6 6h-68c-3.3 0-6-2.7-6-6z" fill="none"/><path d="M420 500c-5.52 0-10-4.48-10-10v-60c0-5.52-4.48-10-10-10 5.52 0 10-4.48 10-10v-60c0-5.52 4.48-10 10-10" stroke="#5e5e5e" stroke-width="3" fill="none"/><use xlink:href="#l" transform="matrix(1,0,0,1,345,345) translate(-4.407407407407408 80.33333333333333)"/><path d="M240 566c0-3.3 2.7-6 6-6h68c3.3 0 6 2.7 6 6v228c0 3.3-2.7 6-6 6h-68c-3.3 0-6-2.7-6-6z" fill="none"/><path d="M320 800c-5.52 0-10-4.48-10-10V690c0-5.52-4.48-10-10-10 5.52 0 10-4.48 10-10V570c0-5.52 4.48-10 10-10" stroke="#5e5e5e" stroke-width="3" fill="none"/><use xlink:href="#m" transform="matrix(1,0,0,1,245,565) translate(-6.592592592592592 120.33333333333333)"/><path d="M1500 566c0-3.3 2.7-6 6-6h68c3.3 0 6 2.7 6 6v268c0 3.3-2.7 6-6 6h-68c-3.3 0-6-2.7-6-6z" fill="none"/><path d="M1500 840c5.52 0 10-4.48 10-10V710c0-5.52 4.48-10 10-10-5.52 0-10-4.48-10-10V570c0-5.52-4.48-10-10-10" stroke="#5e5e5e" stroke-width="3" fill="none"/><use xlink:href="#n" transform="matrix(1,0,0,1,1535,565) translate(-6.592592592592592 140.33333333333334)"/><path d="M1058.38 491.52c-2.34-2.34-2.34-6.14 0-8.48l79.2-79.2c2.34-2.34 2.34-6.14 0-8.48l-5.66-5.66c-2.34-2.34-1.56-4.1 1.75-3.93l41.76 2.2c3.3.17 6.13 3 6.3 6.3l2.2 41.76c.18 3.3-1.58 4.1-3.92 1.75l-5.65-5.66c-2.34-2.34-6.14-2.34-8.48 0l-79.2 79.2c-2.34 2.34-6.14 2.34-8.5 0z" stroke="#5e5e5e" stroke-width="3" fill="#f9d2de"/><path d="M1160 266c0-3.3 2.7-6 6-6h148c3.3 0 6 2.7 6 6v114c-26.72-20.04-43.36-20.04-53.44-20.04-16 0-37.28 20.04-53.28 20.04-9.92 0-26.72 0-53.28-20.04z" stroke="#5e5e5e" stroke-width="5" fill="#f5b5c8"/><use xlink:href="#o" transform="matrix(1,0,0,1,1165,265) translate(50.370370370370374 48.71527777777778)"/><defs><path fill="#333" d="M140-251c80 0 125 45 125 126S219 4 139 4C58 4 15-44 15-125s44-126 125-126zm-1 214c52 0 73-35 73-88 0-50-21-86-72-86-52 0-73 35-73 86s22 88 72 88" id="p"/><path fill="#333" d="M240-174c0 40-23 61-54 70L253 0h-59l-57-94H76V0H24v-248c93 4 217-23 216 74zM76-134c48-2 112 12 112-38 0-48-66-32-112-35v73" id="q"/><path fill="#333" d="M67-125c0 53 21 87 73 88 37 1 54-22 65-47l45 17C233-25 199 4 140 4 58 4 20-42 15-125 8-235 124-281 211-232c18 10 29 29 36 50l-46 12c-8-25-30-41-62-41-52 0-71 34-72 86" id="r"/><path fill="#333" d="M186 0v-106H76V0H24v-248h52v99h110v-99h50V0h-50" id="s"/><path fill="#333" d="M24 0v-248h195v40H76v63h132v40H76v65h150V0H24" id="t"/><path fill="#333" d="M169-182c-1-43-94-46-97-3 18 66 151 10 154 114 3 95-165 93-204 36-6-8-10-19-12-30l50-8c3 46 112 56 116 5-17-69-150-10-154-114-4-87 153-88 188-35 5 8 8 18 10 28" id="u"/><path fill="#333" d="M136-208V0H84v-208H4v-40h212v40h-80" id="v"/><path fill="#333" d="M199 0l-22-63H83L61 0H9l90-248h61L250 0h-51zm-33-102l-36-108c-10 38-24 72-36 108h72" id="w"/><g id="a"><use transform="matrix(0.06172839506172839,0,0,0.06172839506172839,0,0)" xlink:href="#p"/><use transform="matrix(0.06172839506172839,0,0,0.06172839506172839,17.28395061728395,0)" xlink:href="#q"/><use transform="matrix(0.06172839506172839,0,0,0.06172839506172839,33.2716049382716,0)" xlink:href="#r"/><use transform="matrix(0.06172839506172839,0,0,0.06172839506172839,49.25925925925925,0)" xlink:href="#s"/><use transform="matrix(0.06172839506172839,0,0,0.06172839506172839,65.24691358024691,0)" xlink:href="#t"/><use transform="matrix(0.06172839506172839,0,0,0.06172839506172839,80.06172839506172,0)" xlink:href="#u"/><use transform="matrix(0.06172839506172839,0,0,0.06172839506172839,94.87654320987653,0)" xlink:href="#v"/><use transform="matrix(0.06172839506172839,0,0,0.06172839506172839,108.39506172839505,0)" xlink:href="#q"/><use transform="matrix(0.06172839506172839,0,0,0.06172839506172839,124.38271604938271,0)" xlink:href="#w"/><use transform="matrix(0.06172839506172839,0,0,0.06172839506172839,138.7037037037037,0)" xlink:href="#v"/><use transform="matrix(0.06172839506172839,0,0,0.06172839506172839,151.7901234567901,0)" xlink:href="#p"/><use transform="matrix(0.06172839506172839,0,0,0.06172839506172839,169.07407407407405,0)" xlink:href="#q"/></g><path fill="#333" d="M24 0v-248h52v208h133V0H24" id="x"/><path fill="#333" d="M182 0l-62-99L58 0H3l86-130-79-118h55l55 88 55-88h55l-75 118L237 0h-55" id="y"/><g id="b"><use transform="matrix(0.06172839506172839,0,0,0.06172839506172839,0,0)" xlink:href="#x"/><use transform="matrix(0.06172839506172839,0,0,0.06172839506172839,13.518518518518517,0)" xlink:href="#t"/><use transform="matrix(0.06172839506172839,0,0,0.06172839506172839,28.33333333333333,0)" xlink:href="#y"/><use transform="matrix(0.06172839506172839,0,0,0.06172839506172839,43.14814814814814,0)" xlink:href="#t"/><use transform="matrix(0.06172839506172839,0,0,0.06172839506172839,57.96296296296295,0)" xlink:href="#q"/></g><path fill="#333" d="M24-248c93 1 206-16 204 79-1 75-69 88-152 82V0H24v-248zm52 121c47 0 100 7 100-41 0-47-54-39-100-39v80" id="z"/><g id="c"><use transform="matrix(0.06172839506172839,0,0,0.06172839506172839,0,0)" xlink:href="#z"/><use transform="matrix(0.06172839506172839,0,0,0.06172839506172839,13.148148148148147,0)" xlink:href="#w"/><use transform="matrix(0.06172839506172839,0,0,0.06172839506172839,29.1358024691358,0)" xlink:href="#q"/><use transform="matrix(0.06172839506172839,0,0,0.06172839506172839,45.123456790123456,0)" xlink:href="#u"/><use transform="matrix(0.06172839506172839,0,0,0.06172839506172839,59.938271604938265,0)" xlink:href="#t"/><use transform="matrix(0.06172839506172839,0,0,0.06172839506172839,74.75308641975307,0)" xlink:href="#q"/></g><path fill="#333" d="M238-95c0 69-44 99-111 99C63 4 22-25 22-93v-155h51v151c-1 38 19 59 55 60 90 1 49-130 58-211h52v153" id="A"/><g id="d"><use transform="matrix(0.06172839506172839,0,0,0.06172839506172839,0,0)" xlink:href="#u"/><use transform="matrix(0.06172839506172839,0,0,0.06172839506172839,14.814814814814813,0)" xlink:href="#p"/><use transform="matrix(0.06172839506172839,0,0,0.06172839506172839,32.09876543209876,0)" xlink:href="#A"/><use transform="matrix(0.06172839506172839,0,0,0.06172839506172839,48.08641975308641,0)" xlink:href="#q"/><use transform="matrix(0.06172839506172839,0,0,0.06172839506172839,64.07407407407406,0)" xlink:href="#r"/><use transform="matrix(0.06172839506172839,0,0,0.06172839506172839,80.06172839506172,0)" xlink:href="#t"/></g><path fill="#333" d="M24 0v-248h52V0H24" id="B"/><path fill="#333" d="M230 0l2-204L168 0h-37L68-204 70 0H24v-248h70l56 185 57-185h69V0h-46" id="C"/><path fill="#333" d="M210 0H11v-37l134-170H24v-41h178v36L68-41h142V0" id="D"/><path fill="#333" d="M175 0L67-191c6 58 2 128 3 191H24v-248h59L193-55c-6-58-2-129-3-193h46V0h-61" id="E"/><g id="e"><use transform="matrix(0.06172839506172839,0,0,0.06172839506172839,0,0)" xlink:href="#p"/><use transform="matrix(0.06172839506172839,0,0,0.06172839506172839,17.28395061728395,0)" xlink:href="#z"/><use transform="matrix(0.06172839506172839,0,0,0.06172839506172839,32.09876543209876,0)" xlink:href="#v"/><use transform="matrix(0.06172839506172839,0,0,0.06172839506172839,45.61728395061728,0)" xlink:href="#B"/><use transform="matrix(0.06172839506172839,0,0,0.06172839506172839,51.79012345679012,0)" xlink:href="#C"/><use transform="matrix(0.06172839506172839,0,0,0.06172839506172839,70.24691358024691,0)" xlink:href="#B"/><use transform="matrix(0.06172839506172839,0,0,0.06172839506172839,76.41975308641975,0)" xlink:href="#D"/><use transform="matrix(0.06172839506172839,0,0,0.06172839506172839,89.93827160493827,0)" xlink:href="#w"/><use transform="matrix(0.06172839506172839,0,0,0.06172839506172839,104.25925925925925,0)" xlink:href="#v"/><use transform="matrix(0.06172839506172839,0,0,0.06172839506172839,117.77777777777777,0)" xlink:href="#B"/><use transform="matrix(0.06172839506172839,0,0,0.06172839506172839,123.9506172839506,0)" xlink:href="#p"/><use transform="matrix(0.06172839506172839,0,0,0.06172839506172839,141.23456790123456,0)" xlink:href="#E"/></g><path fill="#333" d="M24-248c120-7 223 5 221 122C244-46 201 0 124 0H24v-248zM76-40c74 7 117-18 117-86 0-67-45-88-117-82v168" id="F"/><g id="f"><use transform="matrix(0.06172839506172839,0,0,0.06172839506172839,0,0)" xlink:href="#r"/><use transform="matrix(0.06172839506172839,0,0,0.06172839506172839,15.987654320987653,0)" xlink:href="#p"/><use transform="matrix(0.06172839506172839,0,0,0.06172839506172839,33.2716049382716,0)" xlink:href="#F"/><use transform="matrix(0.06172839506172839,0,0,0.06172839506172839,49.25925925925925,0)" xlink:href="#t"/></g><path fill="#333" d="M67-125c0 54 23 88 75 88 28 0 53-7 68-21v-34h-60v-39h108v91C232-14 192 4 140 4 58 4 20-42 15-125 8-236 126-280 215-234c19 10 29 26 37 47l-47 15c-11-23-29-39-63-39-53 1-75 33-75 86" id="G"/><g id="g"><use transform="matrix(0.06172839506172839,0,0,0.06172839506172839,0,0)" xlink:href="#G"/><use transform="matrix(0.06172839506172839,0,0,0.06172839506172839,17.28395061728395,0)" xlink:href="#t"/><use transform="matrix(0.06172839506172839,0,0,0.06172839506172839,32.09876543209876,0)" xlink:href="#E"/><use transform="matrix(0.06172839506172839,0,0,0.06172839506172839,48.08641975308641,0)" xlink:href="#t"/><use transform="matrix(0.06172839506172839,0,0,0.06172839506172839,62.90123456790123,0)" xlink:href="#q"/><use transform="matrix(0.06172839506172839,0,0,0.06172839506172839,78.88888888888889,0)" xlink:href="#w"/><use transform="matrix(0.06172839506172839,0,0,0.06172839506172839,93.20987654320987,0)" xlink:href="#v"/><use transform="matrix(0.06172839506172839,0,0,0.06172839506172839,106.29629629629629,0)" xlink:href="#p"/><use transform="matrix(0.06172839506172839,0,0,0.06172839506172839,123.58024691358024,0)" xlink:href="#q"/></g><path fill="#333" d="M25-224v-37h50v37H25zM25 0v-190h50V0H25" id="H"/><path fill="#333" d="M135-194c87-1 58 113 63 194h-50c-7-57 23-157-34-157-59 0-34 97-39 157H25l-1-190h47c2 12-1 28 3 38 12-26 28-41 61-42" id="I"/><path fill="#333" d="M185-48c-13 30-37 53-82 52C43 2 14-33 14-96s30-98 90-98c62 0 83 45 84 108H66c0 31 8 55 39 56 18 0 30-7 34-22zm-45-69c5-46-57-63-70-21-2 6-4 13-4 21h74" id="J"/><path fill="#333" d="M137-138c1-29-70-34-71-4 15 46 118 7 119 86 1 83-164 76-172 9l43-7c4 19 20 25 44 25 33 8 57-30 24-41C81-84 22-81 20-136c-2-80 154-74 161-7" id="K"/><g id="h"><use transform="matrix(0.04938271604938272,0,0,0.04938271604938272,0,0)" xlink:href="#x"/><use transform="matrix(0.04938271604938272,0,0,0.04938271604938272,10.814814814814815,0)" xlink:href="#H"/><use transform="matrix(0.04938271604938272,0,0,0.04938271604938272,15.753086419753087,0)" xlink:href="#I"/><use transform="matrix(0.04938271604938272,0,0,0.04938271604938272,26.567901234567902,0)" xlink:href="#J"/><use transform="matrix(0.04938271604938272,0,0,0.04938271604938272,36.44444444444444,0)" xlink:href="#K"/></g><path fill="#333" d="M110-194c64 0 96 36 96 99 0 64-35 99-97 99-61 0-95-36-95-99 0-62 34-99 96-99zm-1 164c35 0 45-28 45-65 0-40-10-65-43-65-34 0-45 26-45 65 0 36 10 65 43 65" id="L"/><path fill="#333" d="M147 0L96-86 75-71V0H25v-261h50v150l67-79h53l-66 74L201 0h-54" id="M"/><g id="i"><use transform="matrix(0.04938271604938272,0,0,0.04938271604938272,0,0)" xlink:href="#v"/><use transform="matrix(0.04938271604938272,0,0,0.04938271604938272,9.481481481481481,0)" xlink:href="#L"/><use transform="matrix(0.04938271604938272,0,0,0.04938271604938272,20.296296296296298,0)" xlink:href="#M"/><use transform="matrix(0.04938271604938272,0,0,0.04938271604938272,30.172839506172842,0)" xlink:href="#J"/><use transform="matrix(0.04938271604938272,0,0,0.04938271604938272,40.04938271604939,0)" xlink:href="#I"/><use transform="matrix(0.04938271604938272,0,0,0.04938271604938272,50.8641975308642,0)" xlink:href="#K"/></g><g id="j"><use transform="matrix(0.04938271604938272,0,0,0.04938271604938272,0,0)" xlink:href="#w"/><use transform="matrix(0.04938271604938272,0,0,0.04938271604938272,12.790123456790125,0)" xlink:href="#u"/><use transform="matrix(0.04938271604938272,0,0,0.04938271604938272,24.641975308641978,0)" xlink:href="#v"/></g><path fill="#333" d="M220-157c-53 9-28 100-34 157h-49v-107c1-27-5-49-29-50C55-147 81-57 75 0H25l-1-190h47c2 12-1 28 3 38 10-53 101-56 108 0 13-22 24-43 59-42 82 1 51 116 57 194h-49v-107c-1-25-5-48-29-50" id="N"/><path fill="#333" d="M135-194c52 0 70 43 70 98 0 56-19 99-73 100-30 1-46-15-58-35L72 0H24l1-261h50v104c11-23 29-37 60-37zM114-30c31 0 40-27 40-66 0-37-7-63-39-63s-41 28-41 65c0 36 8 64 40 64" id="O"/><path fill="#333" d="M25 0v-261h50V0H25" id="P"/><path fill="#333" d="M135-150c-39-12-60 13-60 57V0H25l-1-190h47c2 13-1 29 3 40 6-28 27-53 61-41v41" id="Q"/><g id="k"><use transform="matrix(0.04938271604938272,0,0,0.04938271604938272,0,0)" xlink:href="#w"/><use transform="matrix(0.04938271604938272,0,0,0.04938271604938272,12.790123456790125,0)" xlink:href="#K"/><use transform="matrix(0.04938271604938272,0,0,0.04938271604938272,22.66666666666667,0)" xlink:href="#K"/><use transform="matrix(0.04938271604938272,0,0,0.04938271604938272,32.543209876543216,0)" xlink:href="#J"/><use transform="matrix(0.04938271604938272,0,0,0.04938271604938272,42.41975308641976,0)" xlink:href="#N"/><use transform="matrix(0.04938271604938272,0,0,0.04938271604938272,58.22222222222223,0)" xlink:href="#O"/><use transform="matrix(0.04938271604938272,0,0,0.04938271604938272,69.03703703703704,0)" xlink:href="#P"/><use transform="matrix(0.04938271604938272,0,0,0.04938271604938272,73.97530864197532,0)" xlink:href="#J"/><use transform="matrix(0.04938271604938272,0,0,0.04938271604938272,83.85185185185186,0)" xlink:href="#Q"/></g><path fill="#333" d="M23 0v-37h61v-169l-59 37v-38l62-41h46v211h57V0H23" id="R"/><g id="l"><use transform="matrix(0.07407407407407407,0,0,0.07407407407407407,0,0)" xlink:href="#R"/><use transform="matrix(0.07407407407407407,0,0,0.07407407407407407,14.814814814814813,0)" xlink:href="#u"/><use transform="matrix(0.07407407407407407,0,0,0.07407407407407407,32.592592592592595,0)" xlink:href="#v"/></g><path fill="#333" d="M182-182c0 78-84 86-111 141h115V0H12c-6-101 99-100 120-180 1-22-12-31-33-32-23 0-32 14-35 34l-49-3c5-45 32-70 84-70 51 0 83 22 83 69" id="S"/><g id="m"><use transform="matrix(0.07407407407407407,0,0,0.07407407407407407,0,0)" xlink:href="#S"/><use transform="matrix(0.07407407407407407,0,0,0.07407407407407407,14.814814814814813,0)" xlink:href="#E"/><use transform="matrix(0.07407407407407407,0,0,0.07407407407407407,34,0)" xlink:href="#F"/></g><path fill="#333" d="M128-127c34 4 56 21 59 58 7 91-148 94-172 28-4-9-6-17-7-26l51-5c1 24 16 35 40 36 23 0 39-12 38-36-1-31-31-36-65-34v-40c32 2 59-3 59-33 0-20-13-33-34-33s-33 13-35 32l-50-3c6-44 37-68 86-68 50 0 83 20 83 66 0 35-22 52-53 58" id="T"/><g id="n"><use transform="matrix(0.07407407407407407,0,0,0.07407407407407407,0,0)" xlink:href="#T"/><use transform="matrix(0.07407407407407407,0,0,0.07407407407407407,14.814814814814813,0)" xlink:href="#q"/><use transform="matrix(0.07407407407407407,0,0,0.07407407407407407,34,0)" xlink:href="#F"/></g><g id="o"><use transform="matrix(0.06172839506172839,0,0,0.06172839506172839,0,0)" xlink:href="#w"/><use transform="matrix(0.06172839506172839,0,0,0.06172839506172839,15.987654320987653,0)" xlink:href="#u"/><use transform="matrix(0.06172839506172839,0,0,0.06172839506172839,30.80246913580247,0)" xlink:href="#C"/></g></defs></g></svg>